<svg width="606" height="234" viewBox="0 0 606 234" fill="none" xmlns="http://www.w3.org/2000/svg">
<g opacity="0.4">
<path opacity="0.8" d="M340.741 -10.3804C442.086 -10.3804 524.241 71.7753 524.241 173.12C524.241 194.088 520.724 214.234 514.248 233.002L465.108 233.001C473.845 214.889 478.741 194.576 478.741 173.12C478.741 96.9043 416.957 35.1196 340.741 35.1196C264.526 35.1196 202.741 96.9043 202.741 173.12C202.741 194.576 207.638 214.889 216.375 233.001L167.234 233.002C160.758 214.234 157.241 194.088 157.241 173.12C157.241 71.7753 239.397 -10.3804 340.741 -10.3804Z" fill="#00A2A2"/>
<path opacity="0.6" d="M421.918 -20.6156C460.148 -4.5778 492.63 22.4461 515.414 56.5065C517.901 61.0388 520.21 65.6684 522.332 70.3861L457.365 99.3108C442.033 75.1353 419.391 56.0532 392.547 45.1735L411.334 3.0881L421.918 -20.6156Z" fill="#2CC0BF"/>
<path opacity="0.6" d="M389.006 -10.5484C397.514 -8.25979 405.723 -5.34927 413.536 -1.84139L392.547 45.1706C376.551 38.6873 359.063 35.1167 340.741 35.1167C337.735 35.1167 334.751 35.2128 331.793 35.4022L325.56 -15.0237C346.205 -17.5887 367.685 -16.2881 389.006 -10.5484Z" fill="#59CECD"/>
<path opacity="0.6" d="M324.789 -21.2373L331.793 35.405C321.854 36.0411 312.2 37.7296 302.943 40.36L282.007 -12.8795C295.679 -17.1926 310.001 -20.04 324.789 -21.2373Z" fill="#85DDDC"/>
</g>
<g opacity="0.6">
<g opacity="0.8">
<path d="M148.5 133C176.943 133 200 109.943 200 81.5C200 53.0573 176.943 30 148.5 30C120.057 30 97 53.0573 97 81.5C97 109.943 120.057 133 148.5 133Z" fill="#009392"/>
</g>
<mask id="mask0" mask-type="alpha" maskUnits="userSpaceOnUse" x="97" y="30" width="103" height="103">
<path fill-rule="evenodd" clip-rule="evenodd" d="M148.5 133C176.943 133 200 109.943 200 81.5C200 53.0573 176.943 30 148.5 30C120.057 30 97 53.0573 97 81.5C97 109.943 120.057 133 148.5 133Z" fill="white"/>
</mask>
<g mask="url(#mask0)">
<path opacity="0.4" fill-rule="evenodd" clip-rule="evenodd" d="M198.387 101.954V104.391H152.14V101.954H198.387ZM203.256 98.4337V95.9966H157.008V98.4337H203.256ZM211.369 88.9561V91.3932H165.122V88.9561H211.369ZM219.483 84.3521V81.915H173.236V84.3521H219.483ZM213.801 74.8746V77.3117H165.122V74.8746H213.801ZM187.028 70.2711V67.834H157.008V70.2711H187.028ZM198.387 61.053V58.616L152.14 58.616V61.053L198.387 61.053Z" fill="#59CECD"/>
<path opacity="0.6" fill-rule="evenodd" clip-rule="evenodd" d="M148.885 101.954V104.391L135.051 104.391V101.954H148.885ZM153.768 98.4337V95.9966H139.934V98.4337H153.768ZM161.906 88.9561V91.3932H148.072V88.9561H161.906ZM170.044 84.3521V81.915H156.21V84.3521H170.044ZM161.906 74.8746V77.3117H148.072V74.8746H161.906ZM153.768 70.2711V67.834H139.934V70.2711H153.768ZM148.885 61.053V58.616H135.051V61.053H148.885Z" fill="#59CECD"/>
<path opacity="0.8" fill-rule="evenodd" clip-rule="evenodd" d="M128.337 101.954V104.391H122.844V101.954H128.337ZM128.337 98.4336V95.9965H122.845V98.4336H128.337ZM128.337 88.956V91.3931H122.845V88.956H128.337ZM128.337 84.3521V81.915H122.845V84.3521H128.337ZM128.337 74.8746V77.3117H122.845V74.8746H128.337ZM128.337 70.2711V67.834H122.845V70.2711H128.337ZM128.337 61.053V58.6159H122.845V61.053H128.337Z" fill="#59CECD"/>
</g>
</g>
<g opacity="0.8">
<path opacity="0.4" fill-rule="evenodd" clip-rule="evenodd" d="M209.902 19.6316C215.962 19.6316 220.875 14.7187 220.875 8.65838C220.875 2.59805 215.962 -2.31482 209.902 -2.31482C203.842 -2.31482 198.929 2.59805 198.929 8.65838C198.929 14.7187 203.842 19.6316 209.902 19.6316Z" fill="#00A2A2"/>
</g>
<path fill-rule="evenodd" clip-rule="evenodd" d="M54.728 227.142L49.3351 228.718C47.8177 231.919 44.0912 233.411 40.7836 232.143L40.6637 232.097C39.936 231.809 39.254 231.416 38.6388 230.932C36.3095 229.143 32.4845 228.288 27.4394 228.196C26.7986 228.013 26.363 227.419 26.3806 226.753C26.3992 226.049 26.918 225.458 27.614 225.349L54.6931 221.093L54.728 227.142Z" fill="#FACDBC"/>
<path fill-rule="evenodd" clip-rule="evenodd" d="M125.303 230.109C111.037 228.203 97.9978 224.854 86.9887 219.12L53.5225 228.268L53.4525 220.879L79.5389 210.955C83.9397 209.281 88.6443 208.554 93.3453 208.822L124.877 213.823L125.303 230.109Z" fill="#008AB6"/>
<path fill-rule="evenodd" clip-rule="evenodd" d="M71.2188 234.491C70.9796 233.764 71.2479 232.966 71.8779 232.53L84.4401 225.5L87.3146 217.399L92.7072 220.592L91.3817 226.553L91.7959 228.994C92.0589 230.544 91.6364 232.131 90.6382 233.345C89.6399 234.559 88.164 235.279 86.593 235.321L72.9055 235.679C72.1427 235.699 71.4571 235.216 71.2188 234.491Z" fill="#FACDBC"/>
<path d="M92.3231 232.225C92.3838 232.639 92.3584 233.062 92.2483 233.466C91.9583 234.291 91.0375 234.689 90.21 234.949C86.4326 236.118 82.4289 236.309 78.4802 236.492C75.517 236.629 72.467 236.754 69.6684 235.775C69.0921 235.605 68.562 235.307 68.1189 234.901C67.6686 234.488 67.4695 233.869 67.595 233.271C67.7937 232.531 68.5549 232.117 69.242 231.784L72.9854 229.979L80.1988 226.502C81.0979 226.07 82.035 225.63 83.032 225.631C84.2404 225.638 85.3342 226.294 86.4277 226.809C87.2172 227.182 88.0357 227.489 88.8751 227.728C89.6179 227.937 90.653 227.938 91.3137 228.315C92.5121 228.997 92.2302 231.057 92.3231 232.225Z" fill="#B08814"/>
<path d="M48.7974 232.256C48.7107 232.676 48.5385 233.073 48.2914 233.423C47.7245 234.113 46.7007 234.174 45.8146 234.135C41.7768 233.937 37.8633 232.72 34.0057 231.516C31.1111 230.61 28.1371 229.664 25.7908 227.745C25.2962 227.381 24.8914 226.908 24.6075 226.364C24.3193 225.81 24.3447 225.144 24.6743 224.614C25.1237 223.973 26 223.841 26.7765 223.761L31.0041 223.337L39.1504 222.518C40.1653 222.417 41.2194 222.322 42.1767 222.672C43.3354 223.101 44.1566 224.115 45.0272 224.992C45.6555 225.625 46.3343 226.207 47.0571 226.73C47.6977 227.191 48.6919 227.554 49.1947 228.147C50.1076 229.221 49.1164 231.102 48.7974 232.256Z" fill="#B08814"/>
<path fill-rule="evenodd" clip-rule="evenodd" d="M142.333 225.095C127.452 244.622 116.322 224.069 105.313 202.235L93.2646 223.046L85.4729 217.818L97.9034 188.453C98.5258 186.983 99.8165 185.901 101.373 185.546C102.929 185.19 104.562 185.604 105.761 186.658L124.689 206.667L128.138 206.329L142.333 225.095Z" fill="#2CA9D2"/>
<path fill-rule="evenodd" clip-rule="evenodd" d="M141.766 170.415C146.809 170.283 150.789 166.088 150.657 161.046C150.525 156.004 146.331 152.023 141.288 152.155C136.246 152.287 132.265 156.482 132.397 161.524C132.529 166.567 136.724 170.547 141.766 170.415Z" fill="#FACDBC"/>
<path fill-rule="evenodd" clip-rule="evenodd" d="M153.552 177.268L143.493 179.753C142.413 175.613 140.901 171.597 138.981 167.772L148.268 164.072C149.541 168.651 151.313 173.076 153.552 177.268Z" fill="#FACDBC"/>
<path fill-rule="evenodd" clip-rule="evenodd" d="M143.259 227.416L124.69 206.667L131.706 194.283C132.334 188.778 135.054 184.393 139.323 180.837L142.155 175.837L150.942 171.903C157.487 176.835 159.924 185.536 156.894 193.15L143.259 227.416Z" fill="#E46732"/>
<path fill-rule="evenodd" clip-rule="evenodd" d="M104.817 169.285C113.79 169.285 121.064 162.011 121.064 153.038C121.064 144.065 113.79 136.791 104.817 136.791C95.8437 136.791 88.5696 144.065 88.5696 153.038C88.5696 162.011 95.8437 169.285 104.817 169.285Z" fill="#009392"/>
<path fill-rule="evenodd" clip-rule="evenodd" d="M109.355 148.22L115.06 153.734L109.45 159.25L108.117 157.962L112.416 153.735L108.044 149.508L109.355 148.22ZM101.595 148.219L102.87 149.507L98.7603 153.734L102.946 157.96L101.693 159.249L96.2368 153.735L101.595 148.219Z" fill="#007373"/>
<path d="M109.386 171.925C109.301 171.415 109.261 170.899 109.267 170.382C109.193 168.848 108.682 167.377 108.182 165.923C108.11 165.629 107.955 165.363 107.735 165.155C107.293 164.885 106.719 164.981 106.39 165.381C106.086 165.784 105.921 166.275 105.921 166.78C105.887 167.335 105.887 167.976 105.448 168.313C105.268 168.435 105.061 168.513 104.845 168.539C103.542 168.771 102.199 168.233 101.096 167.49C99.9929 166.746 99.0504 165.782 97.9683 165.007C97.3951 164.603 96.7992 164.233 96.1833 163.898C95.5474 163.538 94.6402 163.24 94.1835 163.808C93.8183 164.261 94.0357 164.931 94.3199 165.447C94.7981 166.338 95.3812 167.169 96.0568 167.921C98.0614 170.167 100.776 171.628 103.255 173.333C106.032 175.245 108.558 177.496 110.776 180.036C111.057 179.78 111.25 179.441 111.327 179.069C111.668 178.031 112.831 175.995 112.064 174.956C111.225 173.814 109.72 173.548 109.386 171.925Z" fill="#F8B79D"/>
<path d="M127.913 184.13C127.289 184.574 126.584 184.891 125.838 185.063C124.37 185.274 123.064 184.256 121.946 183.293C118.846 180.619 115.725 177.931 113.119 174.775C113.002 174.592 112.823 174.457 112.615 174.395C112.438 174.377 112.261 174.416 112.108 174.505C111.328 174.859 110.575 175.269 109.854 175.732C109.129 176.136 108.526 176.728 108.108 177.446C107.709 178.38 107.731 179.441 108.168 180.358C108.607 181.257 109.173 182.088 109.848 182.827C113.189 186.813 116.583 190.755 120.029 194.655C120.239 194.929 120.504 195.157 120.807 195.324C121.679 195.725 122.636 195.054 123.566 194.835C124.497 194.615 125.483 194.87 126.441 194.956C128.17 195.116 129.899 194.739 131.595 194.362L137.018 193.159C141.771 192.106 146.807 190.896 150.195 187.418L145.897 183.586C144.609 182.434 143.356 180.989 141.919 180.02C140.858 179.293 138.801 180.216 137.649 180.49C136.035 180.865 134.441 181.322 132.874 181.86C131.32 182.395 129.225 183.035 127.913 184.13Z" fill="#E46732"/>
<path fill-rule="evenodd" clip-rule="evenodd" d="M148.801 146.655C148.856 144.776 150.338 143.287 152.185 143.256L152.134 143.25L152.134 143.25C152.078 143.243 152.023 143.237 151.966 143.234C150.033 143.146 148.42 144.668 148.364 146.635C148.349 147.167 148.449 147.677 148.642 148.14C148.641 148.14 148.641 148.14 148.641 148.14C145.408 145.554 136.514 149.094 135.995 150.884C131.767 151.555 128.638 154.135 128.794 158.61L128.794 158.61C131.356 159.612 134.224 159.426 137.297 158.444C142.389 162.444 142.907 167.587 140.103 173.561L143.809 173.564L148.162 166.661L148.622 173.568L157.105 173.229L156.761 163.325C156.674 160.032 155.814 156.794 154.254 153.881C153.627 152.736 152.865 151.807 152.028 150.982C152.211 151.008 152.397 151.019 152.587 151.016C154.532 150.978 156.053 149.346 155.984 147.372C155.915 145.398 154.283 143.828 152.338 143.866C150.393 143.904 148.872 145.535 148.941 147.509C148.945 147.627 148.955 147.743 148.97 147.858C148.85 147.479 148.79 147.073 148.801 146.655Z" fill="#394851"/>
<path fill-rule="evenodd" clip-rule="evenodd" d="M141.568 165.574C142.528 165.549 143.278 164.439 143.243 163.095C143.207 161.751 142.401 160.681 141.441 160.707C140.481 160.732 139.731 161.842 139.766 163.186C139.801 164.53 140.608 165.599 141.568 165.574Z" fill="#FACDBC"/>
<path fill-rule="evenodd" clip-rule="evenodd" d="M543.684 9.96907C543.684 17.6742 539.043 24.6207 531.924 27.5693C524.805 30.5179 516.611 28.8881 511.163 23.4397C505.715 17.9913 504.085 9.79744 507.033 2.67881C509.982 -4.43982 516.929 -9.0813 524.634 -9.0813C535.15 -9.06938 543.672 -0.547218 543.684 9.96907V9.96907Z" stroke="#009392" stroke-width="0.5"/>
<path fill-rule="evenodd" clip-rule="evenodd" d="M564.649 143.272C543.292 143.272 525.979 125.959 525.979 104.602C525.979 83.245 543.292 65.9318 564.649 65.9318C586.006 65.9318 603.319 83.245 603.319 104.602C603.319 125.959 586.006 143.272 564.649 143.272Z" stroke="#009392"/>
<path fill-rule="evenodd" clip-rule="evenodd" d="M564.078 113.8C564.078 113.513 563.97 113.28 563.836 113.28H543.854C543.72 113.28 543.611 113.513 543.611 113.8C543.611 114.087 543.72 114.32 543.854 114.32H563.836C563.97 114.32 564.078 114.087 564.078 113.8ZM585.952 117.074C585.952 116.787 585.843 116.554 585.71 116.554H554.281C554.147 116.554 554.039 116.787 554.039 117.074C554.039 117.361 554.147 117.594 554.281 117.594H585.71C585.843 117.594 585.952 117.361 585.952 117.074ZM563.739 119.829C563.873 119.829 563.981 120.062 563.981 120.349C563.981 120.636 563.873 120.869 563.739 120.869H543.757C543.623 120.869 543.514 120.636 543.514 120.349C543.514 120.062 543.623 119.829 543.757 119.829H563.739ZM572.323 119.888C572.457 119.888 572.566 120.121 572.566 120.408C572.566 120.695 572.457 120.928 572.323 120.928H566.6C566.466 120.928 566.358 120.695 566.358 120.408C566.358 120.121 566.466 119.888 566.6 119.888H572.323ZM563.787 123.104C563.874 123.103 563.954 123.202 563.998 123.363C564.041 123.524 564.041 123.723 563.998 123.884C563.954 124.045 563.874 124.144 563.787 124.143H543.805C543.718 124.144 543.638 124.045 543.595 123.884C543.551 123.723 543.551 123.524 543.595 123.363C543.638 123.202 543.718 123.103 543.805 123.104H563.787ZM549.739 126.697C549.695 126.536 549.615 126.437 549.528 126.438H543.805C543.718 126.437 543.638 126.536 543.595 126.697C543.551 126.858 543.551 127.057 543.595 127.218C543.638 127.379 543.718 127.478 543.805 127.477H549.528C549.615 127.478 549.695 127.379 549.739 127.218C549.782 127.057 549.782 126.858 549.739 126.697ZM585.952 126.957C585.952 126.67 585.843 126.438 585.71 126.438H554.281C554.194 126.437 554.114 126.536 554.071 126.697C554.027 126.858 554.027 127.057 554.071 127.218C554.114 127.379 554.194 127.478 554.281 127.477H585.71C585.843 127.477 585.952 127.245 585.952 126.957ZM572.566 123.623C572.566 123.336 572.457 123.104 572.323 123.104H566.6C566.466 123.104 566.358 123.336 566.358 123.623C566.358 123.91 566.466 124.143 566.6 124.143H572.323C572.457 124.143 572.566 123.91 572.566 123.623ZM582.169 120.408C582.169 120.121 582.06 119.888 581.926 119.888H576.203C576.069 119.888 575.961 120.121 575.961 120.408C575.961 120.695 576.069 120.928 576.203 120.928H581.926C582.06 120.928 582.169 120.695 582.169 120.408ZM549.528 116.554C549.662 116.554 549.771 116.787 549.771 117.074C549.771 117.361 549.662 117.594 549.528 117.594H543.805C543.671 117.594 543.563 117.361 543.563 117.074C543.563 116.787 543.671 116.554 543.805 116.554H549.528Z" fill="#009392"/>
<path fill-rule="evenodd" clip-rule="evenodd" d="M577.7 87.93L575.77 89.8772L582.099 96.266L575.764 102.655L577.693 104.602L585.952 96.266L577.7 87.93ZM551.98 87.93L543.346 96.266L551.98 104.602L553.997 102.655L547.38 96.266L553.997 89.8772L551.98 87.93ZM569.537 96.7291V94.4135H572.059V96.7291H569.537ZM559.092 94.4135V96.7291H561.613V94.4135H559.092ZM564.134 96.7291V94.4135H566.656V96.7291H564.134Z" fill="#009392"/>
<path opacity="0.8" fill-rule="evenodd" clip-rule="evenodd" d="M311.165 113.208C310.225 113.208 309.463 113.878 309.463 114.705L309.463 192.18H320.463L320.463 114.705C320.463 113.878 319.701 113.208 318.76 113.208H311.165ZM351.803 138.264C352.122 137.983 352.555 137.825 353.006 137.825H360.602C361.542 137.825 362.304 138.496 362.304 139.323L362.304 192.18H351.304L351.304 139.323C351.304 138.925 351.483 138.545 351.803 138.264ZM330.384 152.735C330.384 151.908 331.146 151.237 332.086 151.237H339.681C340.621 151.237 341.383 151.908 341.383 152.735L341.384 192.18H330.384L330.384 152.735ZM288.542 144.639C288.542 143.954 289.304 143.399 290.244 143.399H297.84C298.78 143.399 299.542 143.954 299.542 144.639L299.542 192.18H288.543L288.542 144.639Z" fill="#009392"/>
<path d="M395.026 102.321L369.484 81.4332L345.266 93.8267L321.048 55.7972L293.237 83.3033" stroke="#009392" stroke-width="2" stroke-linecap="round"/>
<path fill-rule="evenodd" clip-rule="evenodd" d="M315.878 57.6673C315.878 54.9059 318.117 52.6673 320.878 52.6673C323.639 52.6673 325.878 54.9059 325.878 57.6673C325.878 60.4288 323.639 62.6673 320.878 62.6673C318.117 62.6673 315.878 60.4288 315.878 57.6673ZM369.28 77.3033C366.519 77.3033 364.28 79.5419 364.28 82.3033C364.28 85.0647 366.519 87.3033 369.28 87.3033C372.042 87.3033 374.28 85.0647 374.28 82.3033C374.28 79.5419 372.042 77.3033 369.28 77.3033ZM245.929 83.9528C245.929 81.1914 248.167 78.9528 250.929 78.9528C253.69 78.9528 255.929 81.1914 255.929 83.9528C255.929 86.7142 253.69 88.9528 250.929 88.9528C248.167 88.9528 245.929 86.7142 245.929 83.9528ZM345.079 89.6968C342.318 89.6968 340.079 91.9354 340.079 94.6968C340.079 97.4583 342.318 99.6968 345.079 99.6968C347.841 99.6968 350.079 97.4583 350.079 94.6968C350.079 91.9354 347.841 89.6968 345.079 89.6968ZM395.026 96.2968C392.265 96.2968 390.026 98.5354 390.026 101.297C390.026 104.058 392.265 106.297 395.026 106.297C397.787 106.297 400.026 104.058 400.026 101.297C400.026 98.5354 397.787 96.2968 395.026 96.2968Z" fill="#00B2B1"/>
<path fill-rule="evenodd" clip-rule="evenodd" d="M292.977 86.5373C293.454 85.9575 293.751 85.2504 293.83 84.5037C294.093 82.8601 293.582 81.187 292.444 79.9717C291.285 78.8249 289.358 78.4327 287.964 79.2853C286.881 79.9419 286.284 81.1527 285.742 82.2995C285.496 82.8215 285.214 83.3346 284.933 83.8486C284.299 85.0052 283.662 86.166 283.415 87.4411C282.868 90.2598 281.382 92.727 279.889 95.2035C278.691 97.192 277.489 99.1865 276.768 101.374C276.581 101.938 276.427 102.515 276.272 103.091C275.946 104.307 275.62 105.521 274.999 106.605C274.566 107.304 274.081 107.969 273.549 108.596C271.451 111.243 269.596 114.074 268.007 117.054C267.248 117.202 266.559 117.757 265.899 118.289C265.758 118.403 265.618 118.516 265.479 118.623C264.474 119.405 263.309 119.957 262.068 120.239C261.568 120.299 261.09 120.474 260.67 120.751C260.34 121.028 260.169 121.428 259.997 121.832C259.864 122.143 259.731 122.456 259.523 122.716C259.175 123.104 258.735 123.398 258.244 123.569C258.214 123.42 258.214 123.266 258.214 123.117C258.184 122.324 258.184 121.531 258.184 120.738C261.011 117.391 261 112.489 258.158 109.154C258.191 107.92 258.353 106.692 258.644 105.492C258.798 104.908 258.772 104.188 258.303 103.812C258.046 103.657 257.782 103.515 257.51 103.386C257.154 103.088 256.864 102.719 256.658 102.303C255.355 100.445 252.895 99.8089 250.855 100.802C249.924 101.291 249.217 102.07 248.507 102.851C248.034 103.372 247.56 103.894 247.018 104.333C246.665 104.621 246.283 104.871 245.901 105.122C245.532 105.365 245.162 105.608 244.818 105.884C243.416 107.105 242.421 108.725 241.966 110.527C241.513 112.321 241.249 114.157 241.177 116.006C241.105 116.56 241.126 117.122 241.241 117.668C241.383 118.125 241.594 118.556 241.868 118.947C243.168 121.061 244.994 122.8 247.167 123.995C247.181 124.104 247.181 124.214 247.167 124.323C247.147 124.489 247.116 124.646 247.084 124.807L247.078 124.835C247.052 124.827 247.026 124.818 247.001 124.809C246.943 124.787 246.887 124.767 246.831 124.767C246.531 124.698 246.223 124.655 245.916 124.613C245.288 124.525 244.662 124.438 244.115 124.132C243.391 123.726 242.929 123.017 242.465 122.306C242.033 121.643 241.599 120.978 240.951 120.555C240.838 120.479 240.718 120.414 240.593 120.359C240.501 117.935 240.038 115.539 239.221 113.256C239.166 113.101 239.109 112.945 239.052 112.789C238.706 111.845 238.355 110.887 238.406 109.888C238.458 108.887 238.902 107.96 239.337 107.051C239.371 106.981 239.404 106.91 239.438 106.839C241.008 103.506 242.127 99.9669 243.241 96.4428L243.275 96.3345C243.991 94.0977 244.702 91.8594 245.407 89.6197C246.101 89.1059 246.729 88.5088 247.278 87.8419C248.415 86.5165 249.165 84.9047 249.448 83.182C249.723 81.4438 249.292 79.6679 248.25 78.2493C247.792 77.5713 247.063 77.125 246.251 77.0258C245.535 77.0401 244.856 77.3485 244.375 77.8784C243.67 78.6879 243.126 79.624 242.772 80.6368C242.077 82.2825 241.369 84.0006 241.433 85.7912C241.448 86.1693 241.495 86.5587 241.541 86.949C241.676 88.0904 241.813 89.2397 241.177 90.1356C238.85 93.3885 236.986 97.0391 235.151 100.635C234.754 101.412 234.358 102.188 233.96 102.955C233.388 103.986 232.901 105.061 232.502 106.17C231.955 107.966 231.696 109.836 231.734 111.712C231.717 115.23 232.195 118.73 232.672 122.213C232.889 123.791 233.167 125.462 233.917 126.822C233.425 128.505 233.166 130.248 233.15 132.002C233.132 132.407 233.195 132.811 233.337 133.191C233.59 133.634 233.909 134.035 234.284 134.381C235.297 135.527 235.763 137.055 235.563 138.572C235.442 139.986 235.57 141.41 235.942 142.78C236.795 146.561 237.647 150.347 238.334 154.163C238.496 154.872 238.55 155.603 238.492 156.328C238.435 156.717 238.322 157.098 238.21 157.478C238.024 158.106 237.839 158.729 237.916 159.373C238.036 159.854 238.126 160.342 238.185 160.835C238.157 161.208 238.07 161.575 237.929 161.922C237.746 162.456 237.505 163.12 237.234 163.866C236.069 167.076 234.352 171.805 234.373 174.226C234.595 174.166 234.825 174.115 235.055 174.064C234.681 176.195 234.029 178.274 233.377 180.356C232.84 182.068 232.302 183.784 231.917 185.532C231.332 188.353 231.066 191.23 231.124 194.11C231.183 195.402 231.16 196.697 231.056 197.986C230.984 198.633 230.859 199.273 230.734 199.912C230.637 200.406 230.54 200.899 230.468 201.396C230.288 202.93 230.221 204.475 230.268 206.018C230.218 208.441 230.354 210.863 230.673 213.266C231.119 216.051 230.731 218.824 230.34 221.613C230.157 222.922 229.973 224.234 229.875 225.553C229.716 228.443 229.387 231.321 228.89 234.173C228.817 234.551 228.738 234.928 228.658 235.305C228.485 236.13 228.311 236.954 228.2 237.788C227.986 239.402 228.008 241.038 228.03 242.672C228.057 244.69 228.084 246.705 227.667 248.673C227.618 248.904 227.565 249.139 227.51 249.376C227.172 250.85 226.815 252.409 227.616 253.635C227.777 253.884 227.981 254.104 228.184 254.324C228.346 254.499 228.507 254.674 228.647 254.863C229.008 255.276 229.121 255.849 228.946 256.368C228.866 256.54 228.739 256.683 228.613 256.826C228.451 257.011 228.29 257.194 228.23 257.434C228.08 258.086 228.745 258.628 229.359 258.905C229.382 258.916 229.406 258.926 229.429 258.935C229.465 258.949 229.502 258.962 229.538 258.977C229.453 259.431 229.573 259.9 229.867 260.256C230.23 260.602 230.684 260.838 231.176 260.938L239.225 263.381C241.037 263.923 242.989 264.447 244.767 264.021C244.81 264.276 244.92 264.514 245.087 264.712C245.452 265.056 245.905 265.292 246.396 265.394L254.445 267.832C256.5 268.455 258.76 269.073 260.729 268.22C261.296 267.99 261.794 267.617 262.174 267.137C262.806 266.201 262.993 265.035 262.686 263.948C262.581 263.405 262.31 262.908 261.91 262.524C261.361 262.147 260.714 261.937 260.047 261.919C259.479 261.902 258.922 261.756 258.418 261.493C258.267 261.393 258.141 261.26 258.048 261.105C258.508 260.649 258.96 260.171 259.386 259.689C259.041 259.549 258.917 259.063 258.883 258.696C258.542 255.078 259.34 251.513 260.139 247.939C260.539 246.152 260.939 244.363 261.198 242.563C261.586 239.854 261.655 237.108 261.403 234.382C261.374 234.083 261.342 233.784 261.31 233.485C261.231 232.76 261.153 232.034 261.126 231.304C261.022 228.579 261.629 225.909 262.237 223.233C262.828 220.633 263.421 218.027 263.364 215.359C263.335 213.672 263.926 212.001 264.51 210.349C264.796 209.537 265.082 208.73 265.291 207.928C265.849 205.766 265.879 203.507 265.879 201.277L265.986 183.686C265.999 181.312 266.003 178.869 265.223 176.622C264.845 175.38 264.74 174.071 264.916 172.785C265.418 172.567 265.914 172.323 266.408 172.08C268.051 171.273 269.677 170.473 271.46 170.653C272.083 169.012 271.349 163.538 270.765 161.884C268.488 155.358 268.045 148.333 269.486 141.573C269.742 140.386 269.701 139.165 269.661 137.944C269.618 136.666 269.575 135.387 269.874 134.15C269.981 133.581 270.198 133.038 270.514 132.552C270.836 132.063 271.386 131.773 271.972 131.784C271.98 130.284 271.942 128.8 271.844 127.299C272.786 126.531 273.589 125.606 274.218 124.566C275.216 122.944 275.865 121.143 276.513 119.344C276.71 118.798 276.907 118.252 277.113 117.711C278.107 115.103 279.328 112.598 280.551 110.09C281.249 108.659 281.948 107.227 282.604 105.774C283.635 103.494 284.137 101.091 284.642 98.6775C285.023 96.8564 285.405 95.0301 286.015 93.2478C286.808 90.9645 288.451 89.0753 290.603 87.9741C290.78 87.8849 290.962 87.8002 291.144 87.7153C291.815 87.4025 292.491 87.0873 292.977 86.5373ZM244.84 257.464C244.272 257.446 243.715 257.301 243.211 257.037C242.922 256.797 242.713 256.474 242.61 256.112C242.785 255.92 242.955 255.724 243.113 255.52C242.576 255.434 241.906 255.042 241.906 254.497C241.947 253.95 242.065 253.412 242.256 252.898C242.508 251.971 242.55 250.999 242.38 250.054C242.313 249.689 242.217 249.339 242.121 248.99C242.041 248.695 241.96 248.402 241.898 248.102C241.77 247.372 241.685 246.636 241.642 245.897C241.412 243.24 240.893 240.615 240.095 238.07C239.553 236.347 239.905 234.601 240.261 232.833C240.415 232.069 240.569 231.3 240.653 230.528C240.689 230.189 240.71 229.847 240.731 229.505C240.785 228.619 240.84 227.731 241.148 226.904C241.276 226.559 241.443 226.237 241.61 225.916C241.777 225.595 241.943 225.275 242.068 224.934C242.653 223.357 242.303 221.596 241.949 219.946C244.258 215.75 245.157 210.815 246.023 206.059C246.101 205.626 246.18 205.194 246.259 204.764L247.858 196.093C248.084 194.81 248.344 193.471 249.137 192.435C249.966 196.263 250.291 200.183 250.105 204.095C250.008 205.222 250.022 206.356 250.148 207.48C250.265 208.225 250.497 208.943 250.729 209.662C250.885 210.143 251.041 210.626 251.162 211.117C251.617 212.92 251.592 214.784 251.568 216.651C251.556 217.569 251.544 218.488 251.589 219.401C251.616 219.917 251.661 220.433 251.706 220.949C251.758 221.549 251.811 222.149 251.836 222.752C252.045 227.693 250.391 232.498 248.758 237.162C247.998 239.305 247.683 241.674 247.376 243.98C247.273 244.756 247.17 245.525 247.052 246.277L247.032 246.41C246.591 249.235 246.149 252.064 245.927 254.914C245.915 255.073 245.903 255.232 245.891 255.391C245.836 256.122 245.78 256.865 245.692 257.6C245.411 257.539 245.126 257.494 244.84 257.464Z" fill="url(#paint0_linear)"/>
<path d="M251.836 170.176C247.092 169.699 242.321 169.565 237.558 169.775C237.244 169.772 236.931 169.821 236.633 169.92C235.584 170.346 235.422 171.719 235.324 172.84C234.898 177.394 232.911 181.636 231.913 186.095C231.327 188.898 231.061 191.759 231.12 194.622C231.178 195.901 231.155 197.183 231.052 198.459C230.924 199.597 230.626 200.714 230.464 201.848C230.284 203.372 230.217 204.907 230.263 206.44C230.214 208.844 230.35 211.249 230.668 213.632C231.325 217.695 230.178 221.733 229.871 225.842C229.718 228.717 229.395 231.58 228.903 234.416C228.669 235.614 228.375 236.799 228.213 238.006C227.735 241.591 228.434 245.283 227.68 248.822C227.33 250.476 226.699 252.335 227.628 253.75C227.918 254.177 228.345 254.539 228.66 254.97C229.021 255.379 229.134 255.95 228.959 256.466C228.775 256.854 228.349 257.11 228.242 257.524C228.076 258.176 228.758 258.709 229.372 258.986C233.998 261.075 239.962 259.604 243.083 255.601C242.546 255.515 241.889 255.127 241.877 254.582C241.918 254.039 242.035 253.505 242.226 252.996C242.477 252.076 242.52 251.112 242.35 250.173C242.226 249.517 242.005 248.894 241.868 248.234C241.74 247.509 241.655 246.777 241.612 246.042C241.382 243.401 240.863 240.794 240.065 238.266C239.289 235.814 240.346 233.333 240.623 230.775C240.751 229.564 240.696 228.315 241.118 227.173C241.374 226.499 241.787 225.894 242.039 225.22C242.623 223.647 242.273 221.899 241.919 220.262C244.439 215.713 245.279 210.29 246.23 205.178L247.828 196.566C248.067 195.287 248.327 193.961 249.107 192.929C249.936 196.731 250.261 200.626 250.075 204.513C249.978 205.633 249.993 206.76 250.118 207.877C250.314 209.113 250.83 210.277 251.132 211.488C251.793 214.161 251.405 216.966 251.559 219.716C251.618 220.829 251.759 221.933 251.806 223.046C252.015 227.957 250.361 232.732 248.728 237.366C247.726 240.21 247.504 243.442 247.023 246.417C246.596 249.27 246.123 252.122 245.897 255C245.688 257.643 245.594 260.504 243.949 262.58C245.454 263.556 247.005 264.55 248.766 264.886C250.818 265.207 252.918 264.8 254.701 263.735C256.474 262.675 258.059 261.328 259.391 259.749C259.045 259.63 258.922 259.127 258.887 258.764C258.376 253.367 260.427 248.106 261.202 242.734C261.59 240.043 261.659 237.315 261.407 234.608C261.309 233.589 261.168 232.57 261.13 231.547C260.925 226.213 263.496 221.076 263.402 215.738C263.36 213.236 264.681 210.772 265.329 208.354C265.888 206.223 265.905 203.963 265.918 201.746L266.024 184.266C266.024 181.904 266.024 179.483 265.261 177.253C264.323 174.567 265.398 171.485 265.56 168.645C261.129 170.049 256.467 170.569 251.836 170.176Z" fill="#008AB6"/>
<path fill-rule="evenodd" clip-rule="evenodd" d="M244.409 79.1404C244.891 78.6117 245.569 78.3035 246.285 78.2877C247.096 78.387 247.825 78.8314 248.284 79.507C249.325 80.9111 249.757 82.6752 249.482 84.4014C249.2 86.1152 248.449 87.7176 247.312 89.0314C246.765 89.6967 246.136 90.291 245.441 90.8007L243.309 97.4728C242.201 101.011 241.075 104.559 239.472 107.905C239.437 107.979 239.402 108.052 239.366 108.126C238.933 109.026 238.492 109.943 238.44 110.937C238.406 111.968 238.77 112.959 239.127 113.934C239.17 114.051 239.213 114.167 239.255 114.283C240.279 117.12 240.75 120.128 240.64 123.143C238.466 124.848 236.752 126.98 235.047 129.162C233.405 127.726 233.009 125.364 232.706 123.194C232.229 119.732 231.768 116.253 231.768 112.761C231.729 110.893 231.988 109.031 232.536 107.244C232.934 106.142 233.422 105.074 233.994 104.051C234.39 103.292 234.784 102.526 235.179 101.757C237.016 98.1794 238.881 94.5479 241.212 91.3123C241.855 90.4216 241.716 89.2834 241.578 88.1518C241.53 87.7615 241.483 87.3719 241.467 86.9935C241.403 85.2199 242.111 83.5146 242.806 81.8775C243.162 80.8716 243.706 79.9427 244.409 79.1404ZM292.457 81.2166C291.297 80.0743 289.37 79.6818 287.976 80.5345C286.893 81.1783 286.297 82.3805 285.755 83.5189C285.503 84.0559 285.214 84.5802 284.926 85.1038L284.926 85.1039C284.298 86.2431 283.673 87.3789 283.427 88.6349C282.881 91.432 281.395 93.8829 279.903 96.3432C278.704 98.3192 277.502 100.301 276.781 102.474C276.594 103.034 276.439 103.608 276.284 104.181C275.958 105.388 275.633 106.593 275.011 107.671C274.578 108.366 274.094 109.027 273.562 109.649C271.016 112.835 268.827 116.29 267.035 119.954C266.389 121.283 266.946 122.885 267.457 124.356L267.457 124.356C267.557 124.644 267.655 124.927 267.742 125.202C268.219 126.672 268.454 128.21 268.437 129.755C270.889 129.435 272.918 127.649 274.218 125.517C275.217 123.881 275.866 122.096 276.515 120.311C276.711 119.771 276.907 119.232 277.113 118.696C278.104 116.117 279.321 113.64 280.54 111.158C281.242 109.73 281.944 108.3 282.604 106.848C283.634 104.584 284.137 102.196 284.642 99.7984C285.022 97.9883 285.404 96.1732 286.015 94.4032C286.811 92.13 288.454 90.2524 290.603 89.1635C290.784 89.0723 290.97 88.9859 291.157 88.8994C291.823 88.5898 292.494 88.2785 292.977 87.7353C293.454 87.1599 293.75 86.4572 293.83 85.7145C294.095 84.0834 293.588 82.4217 292.457 81.2166ZM251.486 107.112C246.6 107.112 242.64 111.073 242.64 115.959C242.64 119.178 244.359 121.995 246.929 123.543C247.097 124.171 247.264 124.817 247.202 125.274C246.988 126.873 246.131 128.305 245.296 129.687C244.793 130.539 244.149 131.448 243.164 131.541C245.727 132.886 248.42 133.969 251.201 134.773C252.146 135.09 253.137 135.25 254.134 135.246C254.979 135.183 255.806 134.971 256.577 134.619C259.993 133.132 262.537 130.158 263.479 126.553C262.378 126.583 261.276 126.498 260.192 126.302C259.573 126.254 258.996 125.97 258.58 125.509C258.333 125.076 258.218 124.582 258.248 124.085C258.225 123.291 258.213 122.496 258.214 121.701C259.536 120.156 260.333 118.15 260.333 115.959C260.333 111.073 256.372 107.112 251.486 107.112Z" fill="#F7A17D"/>
<path d="M251.09 130.65C250.891 128.26 249.183 126.265 246.852 125.701C245.94 125.496 244.95 125.521 244.136 125.07C242.738 124.289 242.316 122.388 240.973 121.514C239.63 120.64 237.724 121.126 236.556 122.23C235.388 123.334 234.795 124.908 234.318 126.447C233.605 128.528 233.218 130.706 233.171 132.906C233.153 133.308 233.217 133.71 233.358 134.087C233.611 134.527 233.93 134.925 234.305 135.267C235.317 136.404 235.784 137.924 235.584 139.433C235.463 140.837 235.591 142.251 235.963 143.611C236.816 147.371 237.669 151.127 238.355 154.922C238.516 155.62 238.569 156.339 238.513 157.053C238.381 158.081 237.814 159.053 237.937 160.08C238.058 160.559 238.148 161.044 238.206 161.534C238.178 161.905 238.092 162.269 237.95 162.613C236.982 165.422 234.369 171.86 234.394 174.836C238.935 173.672 245.628 173.412 250.318 173.39C251.608 173.377 252.897 173.434 254.181 173.561C257.263 173.893 260.418 174.793 263.407 173.962C266.182 173.19 268.638 170.977 271.507 171.254C272.129 169.626 271.396 164.19 270.812 162.544C268.535 156.065 268.092 149.082 269.533 142.366C270.057 139.953 269.337 137.391 269.921 134.995C270.028 134.428 270.245 133.887 270.56 133.404C270.883 132.917 271.434 132.629 272.019 132.641C272.072 128.787 271.714 124.938 270.953 121.16C270.671 119.817 270.1 118.231 268.723 118.001C267.504 117.792 266.48 118.824 265.5 119.578C264.494 120.357 263.33 120.904 262.089 121.181C261.59 121.241 261.111 121.416 260.691 121.693C260.107 122.179 260.021 123.053 259.544 123.646C258.691 124.707 256.786 124.618 256.18 125.841C256.048 126.206 255.941 126.579 255.86 126.958C255.574 127.685 255.086 128.315 254.453 128.774C253.504 129.667 252.348 130.312 251.09 130.65Z" fill="#BC8F0D"/>
<path d="M258.674 106.554C258.828 105.97 258.802 105.275 258.333 104.883C258.099 104.699 257.792 104.631 257.54 104.456C257.186 104.158 256.896 103.791 256.688 103.378C255.374 101.539 252.925 100.918 250.894 101.907C249.355 102.712 248.425 104.324 247.057 105.411C246.362 105.974 245.556 106.392 244.857 106.955C243.456 108.164 242.461 109.774 242.005 111.567C241.551 113.348 241.287 115.172 241.216 117.008C241.143 117.559 241.165 118.118 241.28 118.662C241.421 119.118 241.633 119.549 241.906 119.941C243.313 122.072 245.168 124.008 247.491 125.108C249.815 126.208 252.642 126.387 254.935 125.236C255.166 125.143 255.365 124.984 255.507 124.78C255.637 124.468 255.668 124.124 255.596 123.795C255.472 122.492 255.73 121.181 256.338 120.022C256.764 119.169 257.404 118.436 257.745 117.553C258.062 116.565 258.198 115.528 258.146 114.492C258.184 111.81 258.001 109.137 258.674 106.554Z" fill="#D45925"/>
<path d="M386.242 120.515C386.693 120.515 387.126 120.729 387.446 121.112C387.765 121.494 387.944 122.012 387.944 122.552V159.595H376.944V122.552C376.944 122.012 377.123 121.494 377.443 121.112C377.762 120.729 378.195 120.515 378.646 120.515H386.242Z" fill="#007373"/>
<path fill-rule="evenodd" clip-rule="evenodd" d="M390.227 118.963C386.222 117.923 382.081 116.871 377.988 117.499C377.489 117.532 377.013 117.724 376.631 118.047C376.12 118.569 376.18 119.466 376.593 120.067C377.05 120.643 377.673 121.064 378.378 121.274C380.292 121.97 382.372 122.03 384.407 122.064C386.441 122.098 388.393 122.143 390.314 121.667C390.759 121.59 391.173 121.392 391.513 121.096C392.602 119.991 391.154 119.205 390.227 118.963Z" fill="#9C5023"/>
<path fill-rule="evenodd" clip-rule="evenodd" d="M420.254 128.73C418.914 128.784 417.571 128.699 416.249 128.476C415.069 128.233 413.906 127.913 412.769 127.516L408.65 126.181C406.419 125.51 404.233 124.695 402.107 123.741C398.472 122.02 395.159 119.46 391.218 118.666C390.507 118.522 389.607 118.518 389.24 119.142C389.096 119.442 389.033 119.775 389.059 120.107L389.036 123.011C389.018 123.204 389.049 123.398 389.127 123.575C389.233 123.734 389.377 123.864 389.547 123.953C393.287 126.355 397.519 128.011 400.916 130.878C401.944 131.744 402.886 132.716 403.968 133.526C405.385 134.574 407.008 135.31 408.73 135.685C411.139 136.211 413.752 136.033 415.935 137.175C416.933 137.693 417.826 138.484 418.934 138.688C419.883 138.855 420.844 138.56 421.759 138.268C423.272 137.788 424.826 137.262 425.851 136.075C427.16 134.562 427.251 132.376 427.273 130.375C427.273 129.808 427.652 127.474 427.3 127.039C426.797 126.442 426.014 127.327 425.519 127.603C423.956 128.461 422.02 128.73 420.254 128.73Z" fill="#0F959E"/>
<path fill-rule="evenodd" clip-rule="evenodd" d="M387.654 162.182C383.516 162.325 379.246 162.45 375.388 160.945C374.907 160.803 374.485 160.512 374.182 160.113C373.803 159.492 374.053 158.63 374.586 158.135C375.158 157.674 375.858 157.399 376.591 157.348C378.607 157.083 380.649 157.488 382.642 157.893C384.635 158.297 386.549 158.683 388.316 159.564C388.731 159.738 389.092 160.022 389.359 160.385C390.207 161.705 388.611 162.147 387.654 162.182Z" fill="#9C5023"/>
<path d="M434.779 120.149C435.646 123.676 436.376 126.541 436.971 128.744C436.069 131.914 429.81 134.725 425.055 133.01C425.843 130.977 426.611 129.199 427.105 125.538C427.452 122.969 429.978 124.91 434.779 120.149Z" fill="#9C5023"/>
<mask id="mask1" mask-type="alpha" maskUnits="userSpaceOnUse" x="425" y="120" width="12" height="14">
<path fill-rule="evenodd" clip-rule="evenodd" d="M434.779 120.149C435.646 123.676 436.376 126.541 436.971 128.744C436.069 131.914 429.81 134.725 425.055 133.01C425.843 130.977 426.611 129.199 427.105 125.538C427.452 122.969 429.978 124.91 434.779 120.149Z" fill="white"/>
</mask>
<g mask="url(#mask1)">
<path d="M434.393 121.442L433.156 119.513C428.779 123.504 425.852 123.09 425.852 123.09L425.059 127.101C425.942 127.422 425.921 128.923 428.809 127.921C431.193 127.1 433.666 124.396 434.393 121.442Z" fill="#823D0B"/>
</g>
<path d="M417.166 107.954C417.23 110.172 417.824 112.421 419.133 114.285C419.339 114.6 419.602 114.885 419.911 115.128C420.476 115.181 421.243 115.733 421.888 115.836C422.373 115.915 422.899 115.836 423.367 115.94C424.829 116.26 426.336 117.325 427.651 117.986C428.538 118.426 429.445 118.882 430.446 119.032C431.657 119.212 432.825 118.924 433.876 118.394C434.761 117.93 435.557 117.349 436.237 116.671C438.508 114.464 440.088 111.405 439.848 108.276C439.306 101.239 429.671 96.0677 422.325 97.3834C421.942 97.4507 421.574 97.5681 421.233 97.7319C421.126 97.8234 421.019 97.9187 420.917 98.0143C420.704 98.2111 420.498 98.4147 420.298 98.6237L420.195 98.7329C419.459 99.5306 418.83 100.402 418.32 101.33C417.141 103.478 417.099 105.557 417.166 107.954Z" fill="#AC8410"/>
<path d="M420.969 98.0344C421.172 98.9826 422.172 100.368 422.573 101.08C424.466 104.426 427.528 107.042 429.589 110.21C429.735 110.436 429.86 110.672 429.99 110.905C430.656 112.099 431.295 113.306 431.93 114.514C432.308 115.235 432.683 115.958 433.053 116.683C433.199 116.972 433.426 117.247 433.443 117.56C433.469 117.859 433.475 118.159 433.461 118.457C433.448 118.578 433.415 118.696 433.363 118.808C433.345 118.848 433.231 119.111 433.176 119.109C433.384 119.1 433.583 119.043 433.753 118.942C434.876 118.39 435.725 117.635 436.553 116.793C436.927 116.423 437.278 116.035 437.603 115.63C438.417 114.584 438.896 113.367 439.272 112.146C439.663 110.871 439.958 109.619 439.855 108.276C439.316 101.252 429.703 96.0914 422.374 97.4048C421.991 97.4719 421.624 97.5892 421.284 97.7526C421.177 97.8439 421.071 97.939 420.969 98.0344Z" fill="#C99C1C"/>
<path d="M435.543 116.073C436.303 120.226 433.872 125.138 429.345 126.054C424.818 126.97 421.314 118.916 420.554 114.763C419.794 110.61 423.117 110.201 426.013 105.72C428.588 108.313 431.587 108.435 433.656 110.602C435.31 112.336 435.185 114.078 435.543 116.073Z" fill="#9C5023"/>
<path d="M410.561 185.625C408.469 191.533 406.367 197.482 405.345 203.666C404.967 205.879 404.755 208.11 404.351 210.315C403.973 212.395 403.428 214.513 403.806 216.593C404.052 217.951 404.676 219.207 405.145 220.5C405.769 222.221 406.125 224.029 406.715 225.761C407.63 228.447 409.094 230.913 410.024 233.59C410.928 236.189 411.329 238.976 412.588 241.419C413.345 242.872 414.377 244.184 414.858 245.739C415.554 248.087 414.911 250.629 413.182 252.365C413.405 253.375 414.581 253.878 415.55 254.256L419.086 255.561C420.432 256.056 421.949 256.552 423.246 255.977C425.16 255.141 425.516 252.614 425.459 250.53C425.27 245.455 424.052 240.478 422.838 235.546C421.703 231.007 420.603 226.469 419.264 221.979C418.708 220.126 418.129 218.28 417.679 216.393C416.057 209.355 416.601 201.99 419.237 195.266C420.75 191.484 419.404 186.824 419.574 182.736L414.498 181.802C413.5 181.62 412.286 181.51 411.654 182.305C411.022 183.099 410.92 184.616 410.561 185.625Z" fill="#AC8410"/>
<path d="M434.596 182.914C434.464 184.733 434.317 186.605 433.492 188.209C432.989 189.2 432.259 190.054 431.688 191.007C430.175 193.576 429.899 196.681 429.839 199.68C429.778 202.774 429.888 205.867 430.001 208.957C430.003 209.912 430.101 210.863 430.292 211.798C430.481 212.581 430.799 213.33 430.981 214.112C431.416 216.004 431.015 218.004 431.276 219.933C431.476 221.401 432.032 222.785 432.475 224.203C433.126 226.38 433.434 228.645 433.386 230.916C433.25 237.066 435.19 242.925 435.236 249.071C435.236 251.189 435.16 253.311 435.338 255.425C435.527 257.724 436.03 259.986 436.28 262.282C436.336 262.811 436.344 263.416 435.935 263.768C435.631 263.971 435.267 264.064 434.903 264.033C433.592 264.115 432.277 263.987 431.007 263.655C429.873 263.31 428.867 262.705 427.766 262.308C425.712 261.552 423.167 261.393 421.991 259.555C421.878 259.399 421.809 259.216 421.79 259.025C421.79 258.503 422.346 258.182 422.611 257.728C422.761 257.432 422.836 257.103 422.83 256.771C422.932 254.351 421.847 252.066 421.125 249.755C420.482 247.5 420.007 245.201 419.702 242.876C418.946 238.076 418.19 233.174 418.98 228.379C419.173 227.199 419.419 225.864 418.696 224.914C418.364 224.555 418 224.227 417.607 223.935C416.729 223.143 416.223 222.019 416.212 220.837C416.212 217.055 414.487 213.273 414.32 209.491C414.222 207.305 414.354 205.115 414.252 202.929C413.98 197.157 412.097 191.605 410.379 186.087C410.09 185.296 409.923 184.466 409.884 183.625C409.841 182.764 410.189 181.931 410.83 181.355C413.712 179.045 417.982 178.269 421.174 180.13C421.809 180.508 422.395 180.943 423.065 181.265C426.537 183.084 431.075 181.17 434.596 182.914Z" fill="#C99C1C"/>
<path fill-rule="evenodd" clip-rule="evenodd" d="M410.308 183.315C410.653 183.663 411.07 183.933 411.529 184.105L414.04 185.24C414.436 185.457 414.862 185.615 415.304 185.709C415.865 185.761 416.431 185.72 416.979 185.588C422.768 184.545 428.707 184.657 434.453 185.917C436.302 183.144 436.465 179.563 435.966 176.272C435.697 174.525 435.262 172.721 435.746 171.019C435.95 170.289 436.321 169.616 436.529 168.886C437.096 166.896 436.412 164.752 436.726 162.706C437.104 160.198 438.931 158.167 439.933 155.845C440.494 154.406 440.904 152.913 441.155 151.39C441.525 149.531 441.903 147.677 442.289 145.826C442.701 143.78 443.114 141.711 443.046 139.627C442.959 136.446 441.794 133.409 440.644 130.44C440.16 129.192 439.596 127.846 438.431 127.18C437.006 126.367 435.209 126.859 433.689 127.471C431.718 128.262 429.77 129.226 427.668 129.627C426.76 129.801 425.515 129.487 424.695 129.729C423.991 129.937 423.511 130.887 423.095 131.465C420.767 134.672 419.081 138.299 418.129 142.146C417.172 146.034 416.957 150.168 415.186 153.757C414.781 154.551 414.332 155.321 413.84 156.064C412.819 157.645 411.714 159.177 411.022 160.921C409.956 163.614 409.963 166.567 410.031 169.483C410.031 169.964 410.058 170.436 410.065 170.913C410.141 174.209 410.068 177.499 409.846 180.784C409.774 181.662 409.736 182.641 410.308 183.315Z" fill="#18A8B6"/>
<path opacity="0.1" d="M410.02 169.476C410.935 169.476 411.847 169.43 412.755 169.377C413.827 169.35 414.891 169.19 415.924 168.901C417.475 168.405 418.802 167.388 420.066 166.371C424.035 163.158 427.719 159.607 431.075 155.758C432.187 154.483 433.28 153.145 433.874 151.56C434.6 149.627 434.525 147.494 434.373 145.433C434.275 144.083 434.139 142.691 433.503 141.492C432.985 140.438 432.007 139.685 430.856 139.453L432.282 139.506C430.913 138.655 429.173 138.772 427.565 138.916C426.461 139.015 425.323 139.124 424.347 139.673C423.137 140.331 422.346 141.564 421.699 142.759C419.54 146.696 418.159 151.106 415.353 154.612C414.984 155.098 414.554 155.535 414.075 155.913C413.999 155.97 413.92 156.023 413.84 156.076C412.819 157.657 411.715 159.188 411.022 160.932C409.945 163.606 409.952 166.56 410.02 169.476Z" fill="black"/>
<path fill-rule="evenodd" clip-rule="evenodd" d="M430.011 138.374C431.362 138.271 432.617 139.24 433.249 140.439C433.881 141.637 434.005 143.026 434.119 144.38C434.27 146.441 434.346 148.574 433.62 150.507C433.026 152.091 431.933 153.43 430.821 154.705C427.468 158.552 423.79 162.103 419.826 165.317C418.563 166.342 417.235 167.352 415.685 167.848C414.652 168.137 413.587 168.297 412.515 168.324C408.461 168.562 404.304 168.457 400.488 167.076C397.462 165.991 394.675 164.122 391.487 163.926C390.704 163.876 389.875 163.926 389.18 163.547C387.901 162.863 387.667 161.131 387.78 159.686C387.72 159.375 387.805 159.053 388.011 158.813C388.218 158.573 388.523 158.44 388.839 158.453C395.216 157.662 401.872 159.281 408.018 157.401C409.414 156.94 410.779 156.394 412.107 155.764C412.711 155.516 413.287 155.204 413.824 154.833C414.303 154.457 414.732 154.019 415.099 153.532C417.905 150.026 419.289 145.616 421.449 141.679C422.111 140.469 422.901 139.251 424.096 138.593C425.072 138.063 426.21 137.954 427.315 137.836C428.922 137.693 430.658 137.575 432.031 138.426" fill="#18A8B6"/>
<path d="M602.34 200.732L604.328 208.933C604.35 209.024 604.346 209.12 604.318 209.21L595.3 237.392C595.226 237.622 595.002 237.769 594.762 237.745C594.521 237.722 594.33 237.533 594.303 237.293L593.055 226.315C593.047 226.242 593.054 226.168 593.077 226.098L601.355 200.694C601.426 200.476 601.633 200.332 601.862 200.341C602.091 200.35 602.286 200.51 602.34 200.732Z" fill="#009392"/>
<path d="M561.533 239.665C561.839 240.582 593.348 239.359 593.654 239.053C593.921 238.67 594.146 238.259 594.327 237.829C594.615 237.217 594.878 236.605 594.878 236.605L593.654 226.7L562.45 225.592C562.45 225.592 561.67 233.987 561.511 237.829C561.471 238.799 561.471 239.481 561.533 239.665Z" fill="#009392"/>
<path opacity="0.1" d="M589.677 228.04L590.289 236.606H576.523V228.04H589.677Z" fill="black"/>
<path opacity="0.1" d="M571.934 230.793L572.016 230.776L571.628 234.464H563.98V230.793H571.934Z" fill="black"/>
<path d="M521.095 211.991H528.142L545.508 205.196C545.508 205.196 557.84 200.162 556.834 209.726C555.827 219.29 554.065 232.126 554.065 232.126C554.065 232.126 548.528 229.609 545.508 230.364C542.488 231.119 544.501 215.011 544.501 215.011C544.501 215.011 519.836 226.84 517.571 225.33C515.306 223.82 514.803 213.249 514.803 213.249L521.095 211.991Z" fill="#C54B17"/>
<path d="M533.788 189.598L542.316 201.852L562.199 218.463C562.199 218.463 580.572 222.741 578.055 225.761C575.538 228.782 560.185 222.741 560.185 222.741C560.185 222.741 537.282 206.13 536.527 204.872C535.772 203.613 527.467 191.784 527.467 191.784L533.788 189.598Z" fill="#703213"/>
<path d="M526.157 178.791L535.248 190.526C535.248 190.526 533.9 195.811 531.744 196.315C529.587 196.818 520.423 189.771 520.423 189.771L526.157 178.791Z" fill="#0086A9"/>
<path d="M530.516 174.715C535.942 174.715 540.34 169.641 540.34 163.38C540.34 157.12 535.942 152.045 530.516 152.045C525.091 152.045 520.693 157.12 520.693 163.38C520.693 169.641 525.091 174.715 530.516 174.715Z" fill="#87401C"/>
<path d="M529.333 173.439C529.333 173.439 526.087 179.066 525.438 182.096C524.788 185.126 515.699 176.036 515.699 176.036L514.509 172.898C514.509 172.898 523.057 168.895 522.408 165.648C521.759 162.402 529.333 173.439 529.333 173.439Z" fill="#87401C"/>
<path d="M533.759 194.553L544.078 208.144L568.743 226.517C568.743 226.517 586.613 230.292 582.586 233.06C578.559 235.829 566.981 230.543 566.981 230.543C566.981 230.543 542.065 217.204 536.78 211.667C531.494 206.13 521.679 196.818 521.679 196.818L533.759 194.553Z" fill="#87401C"/>
<path d="M519.917 215.694L522.937 220.476L540.962 214.805C544.917 213.561 549.253 214.019 552.761 216.229C555.907 218.211 557.921 221.357 553.391 226.013C544.33 235.325 538.29 230.292 538.29 230.292C538.29 230.292 507.836 244.638 502.803 237.59C497.769 230.543 497.517 227.02 497.517 227.02C497.517 227.02 516.897 214.939 519.917 215.694Z" fill="#E46732"/>
<path d="M557.669 230.95C557.669 230.95 565.723 236.235 556.159 238.752C546.595 241.269 539.548 237.745 539.548 237.745C539.548 237.745 531.242 237.745 531.242 233.466C531.242 229.188 534.011 228.684 534.011 228.684L542.568 229.943C542.568 229.943 552.887 227.174 557.669 230.95Z" fill="#006D90"/>
<path fill-rule="evenodd" clip-rule="evenodd" d="M526.676 161.352C526.713 161.037 526.779 160.726 526.874 160.424C527.364 159.325 529.277 159.646 529.617 158.483C529.684 158.256 529.67 158.008 529.735 157.78C529.902 157.199 530.541 156.911 531.109 156.939C531.673 157.022 532.225 157.174 532.756 157.392C534.092 157.798 535.11 157.154 536.491 156.996C537.107 156.973 537.611 158.116 539.23 157.373C539.753 157.029 540.562 156.268 540.283 155.04C540.004 153.811 539.481 153.893 539.238 153.183C538.995 152.473 539.084 151.304 538.73 150.379C538.161 148.896 535.32 149.713 534.226 148.617C533.96 148.351 534.114 147.746 532.959 146.97C531.805 146.194 531.281 147.369 530.206 147.483C529.131 147.597 528.915 145.751 527.474 146.028C526.033 146.306 526.288 147.193 525.374 147.326C524.294 147.78 523.308 147.217 522.432 147.981C521.557 148.744 522.357 149.388 521.3 150.235C520.242 151.082 518.519 151.818 518.359 152.275C518.213 152.819 517.971 153.483 517.908 154.045C517.767 155.326 516.437 155.447 516.286 156.727C516.255 157.124 516.573 158.643 516.639 159.035C516.639 159.035 515.982 160.106 516.224 160.663C516.466 161.22 517.345 161.869 517.454 162.103C517.553 162.283 517.702 162.426 517.813 162.597C518.126 163.082 518.097 163.723 518.253 164.288C518.409 164.853 519.937 166.024 520.741 165.528C521.545 165.031 521.27 163.88 521.657 163.499C522.197 162.967 522.478 163.033 523.144 163.042C524.477 163.06 526.249 163.182 526.676 161.352Z" fill="#28353B"/>
<path d="M513.606 173.099C514.116 172.963 514.652 172.964 515.161 173.103C516.777 173.536 520.398 174.685 521.175 176.432C522.182 178.697 525.705 182.22 525.705 182.22C525.705 182.22 530.487 187.002 529.48 190.274C528.474 193.546 524.698 197.321 524.698 197.321C524.698 197.321 525.705 212.926 520.672 216.953C515.638 220.979 513.624 218.211 513.624 221.986C513.624 225.761 498.02 237.59 495 230.292C495 230.292 496.51 216.701 496.007 211.919C495.511 207.206 496.237 177.801 513.606 173.099Z" fill="#0098C9"/>
<path d="M521.681 179.452C521.681 179.452 537.034 190.778 534.265 195.56C534.265 195.56 524.953 200.09 522.94 199.838C520.926 199.586 513.124 190.778 511.111 190.023C509.097 189.268 508.09 175.677 521.681 179.452Z" fill="#0098C9"/>
<defs>
<linearGradient id="paint0_linear" x1="227.142" y1="77.0602" x2="293.885" y2="77.0602" gradientUnits="userSpaceOnUse">
<stop stop-color="#808080" stop-opacity="0.25"/>
<stop offset="0.54" stop-color="#808080" stop-opacity="0.12"/>
<stop offset="1" stop-color="#808080" stop-opacity="0.1"/>
</linearGradient>
</defs>
</svg>
